# xmcd CD database file generated by LOLA_Freedb v0.9beta0
# 
# Track frame offsets:
#      150
#      3805
#      18142
#      41875
#      63685
#      92690
#      135010
#      148510
#      165247
#      192052
#      213495
#      233627
#      246227
#      259120
#      277935
#      293267
#      306692
# 
# Disc length: 4318 seconds
# 
# Revision: 8 
# Processed by: cddbd v1.5.2PL0 Copyright (c) Steve Scherf et al.
# Submitted via: LOLA_Freedb v0.9beta0
# 
DISCID=de10dc11
DTITLE=Various Artist - Mortal Kombat
DYEAR=1995
DGENRE=Soundtrack
TTITLE0=George S. Clinton - A Taste of Things to Come
TTITLE1=Gravity Kills - Goodbye
TTITLE2=KMFDM - Juke Joint Jezebel
TTITLE3=Psykosonik - Unlearn
TTITLE4=Traci Lords - Control
TTITLE5=Orbital - Halcyon and On and On
TTITLE6=Utah Saints - Utah Saints Take On The Theme From Mortal Kombat
TTITLE7=GZR - The Invisible
TTITLE8=Fear Factory - Zero Signal
TTITLE9=Sister Machine Gun - Burn
TTITLE10=Type O Negative - Blood and Fire
TTITLE11=Bile - I Reject
TTITLE12=Napalm Death - Twist The Knife (Slowly)
TTITLE13=Mutha's Day Out - What U See/We All Bleed Red
TTITLE14=The Immortals - Mortal Kombat (7" Techno Syndrome)
TTITLE15=George S. Clinton - Goro vs Art
TTITLE16=George S. Clinton - Final Kombat
EXTD=
EXTT0=
EXTT1=
EXTT2=
EXTT3=
EXTT4=
EXTT5=
EXTT6=
EXTT7=
EXTT8=
EXTT9=
EXTT10=
EXTT11=
EXTT12=
EXTT13=
EXTT14=
EXTT15=
EXTT16=
PLAYORDER=
